PathFileType	4	(X/Y/Z)	T1_P1_Vision_Movement_2_0-687.trc
DataRate	CameraRate	NumFrames	NumMarkers	Units	OrigDataRate	OrigDataStartFrame	OrigNumFrames
60	60	6	27	m	60	601	687
Frame#	Time	RHip			RKnee			RAnkle			RBigToe			RSmallToe			RHeel			LHip			LKnee			LAnkle			LBigToe			LSmallToe			LHeel			Neck			Head			Nose			RShoulder			RElbow			RWrist			RThumb			RIndex			RPinky			LShoulder			LElbow			LWrist			LThumb			LIndex			LPinky		
		X1	Y1	Z1	X2	Y2	Z2	X3	Y3	Z3	X4	Y4	Z4	X5	Y5	Z5	X6	Y6	Z6	X7	Y7	Z7	X8	Y8	Z8	X9	Y9	Z9	X10	Y10	Z10	X11	Y11	Z11	X12	Y12	Z12	X13	Y13	Z13	X14	Y14	Z14	X15	Y15	Z15	X16	Y16	Z16	X17	Y17	Z17	X18	Y18	Z18	X19	Y19	Z19	X20	Y20	Z20	X21	Y21	Z21	X22	Y22	Z22	X23	Y23	Z23	X24	Y24	Z24	X25	Y25	Z25	X26	Y26	Z26	X27	Y27	Z27
602	10.033333333333331	-131.2677446334316	3903.3410161022366	-642.5829900617274	237.24336037267085	4080.2729973054966	-659.3785153203063	602.3245657861094	4268.000255334329	-692.7042222262755	687.796541582892	4197.52729179383	-649.419918258284	677.0909217941952	4156.185830923851	-697.6370380999095	640.6093411663971	4317.508664791194	-699.3517569284492	-145.9469385038323	4061.034629357502	-509.29420021287103	206.01126435796277	4174.561105248312	-505.9721457956136	562.703180984371	4349.067398947942	-523.1405024968351	632.8771280556206	4217.777765328514	-401.0422273683276	609.0285891413889	4268.944552690595	-377.7298521391775	616.3541734677561	4393.018226320004	-548.1306462740832	-705.2273223132761	3790.480429946689	-586.7900434224844	-932.5206080936402	3618.118991213567	-514.4881749216397	-782.9409095751889	3612.0973906912773	-453.5235010423042	-590.6021471333474	3776.7813478012145	-731.4523044729574	-356.02654971250286	3771.115730531912	-830.6791111651391	-288.63705603459744	3581.899131784018	-599.198228512005	-287.89464778521443	3578.755605875228	-484.1679618870356	-274.6040293700719	3541.9641976164453	-450.487252531614	-234.00614249883492	3564.650584021959	-486.99531566803574	-641.7402873212601	3932.6559984862174	-484.6405650791413	-413.2065019478041	4113.004364205493	-447.12341389069	-154.3021454448008	4097.281091455089	-368.45803663558587	-28.60584692291814	4051.1218822468204	-367.6277399262087	11.34647465426568	4119.842113098257	-367.09755472443146	-21.850599795513144	4171.122780945974	-362.5620593057523
603	10.05	-127.66106273453327	3887.2982107501816	-632.2242014429705	236.7487497156028	4080.335731414062	-661.422683782072	600.684682290738	4266.21179934907	-690.1758203002139	687.2644030365606	4193.868119565968	-648.4342287448004	675.871162411602	4152.642744705239	-695.3748079908653	638.6594508571413	4316.752164149691	-699.601916591372	-141.33694304356356	4069.6153630784015	-509.3491547800843	204.30542417722424	4165.604638547844	-503.0551914282919	560.8882287887687	4339.356210213479	-519.5887888643938	634.1888779730054	4222.916542103872	-402.0001780016266	611.3771710449976	4272.866894430516	-378.5255141286953	614.4107155249652	4383.141266159614	-544.327441037721	-705.1438968007602	3790.4411139587237	-588.9866588554107	-932.9794765608503	3617.9216222522664	-515.4954872640167	-783.9248714197722	3611.6258216125807	-453.4092398474098	-590.5414906031428	3776.470125950821	-731.7311067477746	-358.2337068575806	3780.4137421855644	-825.7755836861465	-250.36110987117362	3627.073469276058	-611.126751140236	-240.44208226172145	3621.493032945202	-500.27223308937005	-228.2033843265669	3573.1119990199436	-457.4823434910532	-180.77104033915234	3631.3399436477507	-514.1954420679328	-641.69012181264	3932.7823952004737	-486.0839657073268	-412.6729486210873	4113.597909699781	-449.5064154907252	-156.8682037090488	4095.248897726022	-367.5715676313642	-34.23179193592684	4037.72361747748	-367.3744820565089	5.3126076478063	4105.354142852502	-363.5123371131333	-20.92758021023749	4173.736823579957	-364.43950683132005
604	10.066666666666666	-122.08520563220993	3878.5615472335558	-626.7935411510838	236.81069539740193	4074.183059621443	-661.3496486397178	598.8316719120671	4264.1232555443075	-686.8597096198289	686.8727734093452	4192.174045521921	-647.9262199731946	674.6928622917932	4145.987828480942	-690.2985789639715	637.9898201158076	4316.349444233952	-699.4644026095381	-138.40838053799015	4072.4286483229903	-506.4408145258403	202.8113528598443	4160.684073225113	-500.0362397552951	558.9345516769604	4334.512296539228	-516.4339300517868	634.666111888008	4225.712801531306	-402.61124397540584	613.1188998543607	4279.077503291426	-379.62628891406126	612.2078540179785	4377.995693174859	-541.0996415278555	-705.3479204841472	3792.182402608375	-592.0223677189814	-933.5594930848331	3617.452823390313	-516.219002691235	-784.0034230600422	3611.4900807001954	-453.33137639072	-590.1456871914485	3773.4162028684827	-730.3144310790229	-358.8675946456997	3791.619775020397	-821.2319694312647	-217.36297984766588	3667.0902008270923	-622.9665052634479	-201.28613013946853	3648.542551881541	-507.05749003660725	-188.20573340847363	3600.4098499219667	-465.7984066088212	-131.86885612725996	3676.9624199987843	-534.4938798916764	-641.6664376917795	3932.9274168124357	-487.6672951810816	-413.1855150451056	4113.437008999773	-451.08406333749144	-160.48873254048615	4093.3283116059924	-367.0178028001204	-40.473557289855464	4024.049066368368	-367.5471569987964	-0.95296738276589	4093.424250614656	-360.63725849180423	-20.651185417256713	4177.645448279017	-366.304529386396
605	10.083333333333334	-117.60448110648419	3878.444496729774	-627.2922767361624	238.04702160008304	4063.8071139374633	-658.9267529847219	597.2171972418355	4262.442726173936	-684.1908971921266	686.3355358702146	4189.262923839272	-647.1554149871117	674.6505857490498	4142.225943717751	-686.9920292712852	638.8687527936328	4316.367911112404	-698.8829589017333	-139.32777120231117	4070.8321889915774	-502.3497264664443	201.97822888518448	4159.15514523671	-497.2653363693005	558.1910536965146	4336.17331821812	-515.3234389660568	634.4282775649644	4223.245809313464	-402.193695307506	613.1653027103812	4281.913892147848	-379.9654345067272	610.8856977502224	4379.890075670639	-540.2043082283976	-706.0108856021259	3796.848597577424	-596.3660989382686	-933.9137210611428	3617.159467528997	-516.5552290234529	-783.806760995913	3611.440864030811	-453.4278938484281	-589.2063875114575	3766.423840000836	-726.8280720218431	-357.39126650808043	3793.917244798526	-816.1463238200279	-197.4832876555385	3691.051896602693	-630.3334952278644	-174.92207650915	3661.0428432499857	-507.02111055107264	-158.36933308384008	3622.7718247812218	-474.9225931678316	-97.66615287990255	3699.785063718557	-545.5522090365866	-641.6926266850647	3933.023283206508	-488.4735005504803	-414.1018909529777	4113.243559496279	-451.2647939657824	-164.03269587243128	4092.0487295608223	-366.9028525440583	-45.844481387331975	4014.199963570741	-367.48870363820555	-4.909344185145342	4087.8235575207073	-359.36543965802184	-21.311097278101737	4179.260535050015	-366.826302659975
606	10.1	-114.9114981918327	3882.202655159679	-630.1836933935052	240.1391249047203	4053.2705646322	-655.3836113783848	596.4921112891119	4261.831531240211	-683.1940215620632	685.6623502765827	4184.849308803042	-646.0794431431727	675.4285784810841	4143.034769035652	-687.1327412107489	640.8180218684153	4316.844992842891	-698.3018382550362	-142.4660677523278	4068.1395272117247	-499.59934348299953	202.59721079826602	4159.022829214019	-495.38098680023825	557.6947231580757	4340.885053862844	-515.9750604832623	634.2498613147501	4218.304350603252	-401.2220897490319	611.4819074893346	4278.386584001011	-379.0271663329139	610.2939622942032	4387.227852717008	-541.2774263952452	-706.9252803554122	3803.0939766602264	-601.3258620176633	-934.4004839068704	3618.9169214434023	-518.1129158006704	-783.6425073468612	3611.4037717405085	-453.9215091302483	-588.0466921324127	3758.1584726521655	-723.1559405976255	-354.36673922799235	3788.350863176782	-810.4270356307263	-188.0387989879471	3697.5742820425457	-632.0839544758333	-152.52794892327643	3668.6989378153376	-506.2708019534527	-132.02062700176938	3639.196980596168	-483.45090562251244	-78.5269440463729	3708.051763675968	-551.6028858367889	-641.748720272979	3933.0518875462944	-488.61240163800784	-414.8062916477696	4114.915718341461	-451.1161620635908	-166.42321738206383	4091.323492243655	-366.9510763368687	-48.61257474437744	4007.507407414114	-366.90817451390734	-6.181157930009649	4086.914265128559	-359.24356654912987	-22.380583462685482	4177.033406103157	-365.74617500524187
607	10.116666666666667	-113.06449359685442	3886.596768725397	-631.8103559207452	242.79174338046022	4049.256020607938	-653.2978109727044	597.3062491103649	4262.6035402558755	-684.0149049966004	685.4084284199799	4182.805289626014	-645.6064982848841	676.0688015312243	4144.949228599372	-688.3000749814928	642.6846403199809	4317.470105164344	-698.1685818016743	-144.68161727658537	4066.8480599707827	-499.739652548476	204.71809543243177	4159.301722575115	-494.6930706691188	556.427337598039	4342.8191339975965	-516.8235728386369	634.6414256347647	4215.066855881785	-400.5200476581906	608.7983210138754	4268.548639232646	-376.9243271416766	609.9457283873344	4394.843731284293	-542.7856055360362	-707.6317257029028	3807.8623540284516	-604.9708570607854	-935.280648696418	3623.1049668920296	-521.5227227665735	-783.5711584175984	3611.403052226148	-454.717104264983	-587.3941559136048	3753.9500335794482	-721.9051096894107	-350.54175500953085	3781.2759583993006	-804.1102972290496	-182.88264119075288	3693.1027499341953	-629.4000847434236	-126.99582646120673	3677.60269817642	-507.35977926389876	-106.02635613087486	3649.845026406181	-490.1949306027184	-69.29026675373463	3711.15449308191	-555.9732111229226	-641.8041612032421	3933.0411116462055	-488.51194718068393	-415.40015465402104	4119.872601087269	-452.4806588027216	-167.28571153125472	4091.093985066146	-367.0250151166133	-47.850307371197324	4000.290045283267	-365.4436922933087	-6.035266885395579	4087.5263211596844	-359.4670752471818	-23.032112190385963	4171.740462090286	-363.7242034061003
